<svg width="44" height="48" viewBox="0 0 44 48" fill="none" xmlns="http://www.w3.org/2000/svg">
<path d="M38.2738 48C37.5339 47.998 36.8017 47.8493 36.1196 47.5627C35.4375 47.2761 34.819 46.8571 34.2998 46.33L21.9998 34.102L9.69976 46.338C8.90981 47.1395 7.89674 47.6843 6.79259 47.9016C5.68845 48.1189 4.54446 47.9984 3.50976 47.556C2.46479 47.1357 1.57085 46.41 0.944675 45.4738C0.3185 44.5376 -0.0108068 43.4343 -0.000241809 42.308V10C-0.000241809 7.34784 1.05333 4.8043 2.92869 2.92893C4.80405 1.05357 7.34759 0 9.99976 0L33.9998 0C35.313 0 36.6133 0.258658 37.8266 0.761205C39.0399 1.26375 40.1422 2.00035 41.0708 2.92893C41.9994 3.85752 42.736 4.95991 43.2386 6.17317C43.7411 7.38642 43.9998 8.68678 43.9998 10V42.308C44.011 43.4334 43.6828 44.536 43.0582 45.4721C42.4335 46.4082 41.5412 47.1344 40.4978 47.556C39.7934 47.8506 39.0373 48.0015 38.2738 48ZM9.99976 4C8.40846 4 6.88234 4.63214 5.75712 5.75736C4.6319 6.88258 3.99976 8.4087 3.99976 10V42.308C3.99904 42.6413 4.0971 42.9673 4.28156 43.2448C4.46602 43.5224 4.7286 43.7391 5.03614 43.8675C5.34368 43.9959 5.68237 44.0303 6.00944 43.9663C6.33651 43.9023 6.63728 43.7428 6.87376 43.508L20.5998 29.866C20.9745 29.4935 21.4814 29.2844 22.0098 29.2844C22.5381 29.2844 23.045 29.4935 23.4198 29.866L37.1298 43.504C37.3662 43.7388 37.667 43.8983 37.9941 43.9623C38.3211 44.0263 38.6598 43.9919 38.9674 43.8635C39.2749 43.7351 39.5375 43.5184 39.722 43.2408C39.9064 42.9633 40.0045 42.6373 40.0038 42.304V10C40.0038 8.4087 39.3716 6.88258 38.2464 5.75736C37.1212 4.63214 35.5951 4 34.0038 4H9.99976Z" fill="#4B4B4B"/>
</svg>
