<svg width="230" height="80" viewBox="0 0 230 80" fill="none" xmlns="http://www.w3.org/2000/svg">
<rect width="76" height="80" rx="10" fill="white"/>
<path d="M104.92 9.6L111.96 20.08L118.96 9.6H124.96L115.12 24L124.64 38H118.64L111.96 27.92L105.24 38H99.2L108.72 24L98.88 9.6H104.92ZM126.476 29.44V24.6H138.596V29.44H126.476ZM142.115 23.6C142.115 21.8667 142.422 20.1733 143.035 18.52C143.675 16.84 144.595 15.32 145.795 13.96C146.995 12.5733 148.462 11.48 150.195 10.68C151.928 9.85333 153.902 9.44 156.115 9.44C158.728 9.44 160.982 10.0133 162.875 11.16C164.795 12.3067 166.222 13.8 167.155 15.64L162.915 18.56C162.435 17.4933 161.808 16.6533 161.035 16.04C160.262 15.4 159.435 14.96 158.555 14.72C157.675 14.4533 156.808 14.32 155.955 14.32C154.568 14.32 153.355 14.6 152.315 15.16C151.302 15.72 150.448 16.4533 149.755 17.36C149.062 18.2667 148.542 19.28 148.195 20.4C147.875 21.52 147.715 22.64 147.715 23.76C147.715 25.0133 147.915 26.2267 148.315 27.4C148.715 28.5467 149.275 29.5733 149.995 30.48C150.742 31.36 151.622 32.0667 152.635 32.6C153.675 33.1067 154.808 33.36 156.035 33.36C156.915 33.36 157.808 33.2133 158.715 32.92C159.622 32.6267 160.462 32.16 161.235 31.52C162.008 30.88 162.608 30.0533 163.035 29.04L167.555 31.64C166.995 33.0533 166.075 34.2533 164.795 35.24C163.542 36.2267 162.128 36.9733 160.555 37.48C158.982 37.9867 157.422 38.24 155.875 38.24C153.848 38.24 151.995 37.8267 150.315 37C148.635 36.1467 147.182 35.0267 145.955 33.64C144.755 32.2267 143.808 30.6533 143.115 28.92C142.448 27.16 142.115 25.3867 142.115 23.6ZM171.257 38V9.6H183.817C185.124 9.6 186.324 9.86666 187.417 10.4C188.537 10.9333 189.497 11.6533 190.297 12.56C191.124 13.4667 191.75 14.48 192.177 15.6C192.63 16.72 192.857 17.8667 192.857 19.04C192.857 20.24 192.644 21.4 192.217 22.52C191.817 23.6133 191.23 24.5733 190.457 25.4C189.684 26.2267 188.777 26.8667 187.737 27.32L194.217 38H188.137L182.297 28.48H176.777V38H171.257ZM176.777 23.64H183.697C184.39 23.64 185.004 23.44 185.537 23.04C186.07 22.6133 186.497 22.0533 186.817 21.36C187.137 20.6667 187.297 19.8933 187.297 19.04C187.297 18.1333 187.11 17.3467 186.737 16.68C186.364 15.9867 185.884 15.44 185.297 15.04C184.737 14.64 184.124 14.44 183.457 14.44H176.777V23.64ZM221.018 38V19.36L213.738 33.24H210.658L203.378 19.36V38H197.858V9.6H203.778L212.178 25.76L220.658 9.6H226.538V38H221.018Z" fill="white"/>
<path d="M100.776 74V56.96H104.088V71.096H112.776V74H100.776ZM114.792 74V56.96H118.104V74H114.792ZM134.403 59.864H128.955V74H125.667V59.864H120.219V56.96H134.403V59.864ZM148.35 71.096V74H136.518V56.96H148.134V59.864H139.83V63.968H147.006V66.656H139.83V71.096H148.35Z" fill="white"/>
<path d="M61 40C61 52.7025 50.7025 63 38 63C25.2975 63 15 52.7025 15 40C15 27.2975 25.2975 17 38 17C50.7025 17 61 27.2975 61 40ZM23.206 40C23.206 48.1705 29.8295 54.794 38 54.794C46.1705 54.794 52.794 48.1705 52.794 40C52.794 31.8295 46.1705 25.206 38 25.206C29.8295 25.206 23.206 31.8295 23.206 40Z" fill="url(#paint0_angular_33_5670)"/>
<defs>
<radialGradient id="paint0_angular_33_5670" cx="0" cy="0" r="1" gradientUnits="userSpaceOnUse" gradientTransform="translate(38 40) rotate(90) scale(23)">
<stop stop-color="#4378FF"/>
<stop offset="1" stop-color="#FF9142"/>
</radialGradient>
</defs>
</svg>
