<svg width="21" height="21" viewBox="0 0 21 21" fill="none" xmlns="http://www.w3.org/2000/svg">
<path d="M14.875 0C11.4406 0 8.75 1.53737 8.75 3.5V7.33075C7.95725 7.12075 7.07087 7 6.125 7C2.69063 7 0 8.53737 0 10.5V17.5C0 19.4626 2.69063 21 6.125 21C9.55937 21 12.25 19.4626 12.25 17.5V17.1631C13.0664 17.3801 13.9606 17.5 14.875 17.5C18.3094 17.5 21 15.9626 21 14V3.5C21 1.53737 18.3094 0 14.875 0ZM14.875 0.875C17.7205 0.875 20.125 2.07725 20.125 3.5C20.125 4.92275 17.7205 6.125 14.875 6.125C12.0295 6.125 9.625 4.92275 9.625 3.5C9.625 2.07725 12.0295 0.875 14.875 0.875ZM6.125 7.875C8.9705 7.875 11.375 9.07725 11.375 10.5C11.375 11.9228 8.9705 13.125 6.125 13.125C3.2795 13.125 0.875 11.9228 0.875 10.5C0.875 9.07725 3.2795 7.875 6.125 7.875ZM0.875 12.32C1.93638 13.3332 3.86662 14 6.125 14C8.38338 14 10.3136 13.3332 11.375 12.32V14C11.375 15.4228 8.9705 16.625 6.125 16.625C3.2795 16.625 0.875 15.4228 0.875 14V12.32ZM6.125 20.125C3.2795 20.125 0.875 18.9228 0.875 17.5V15.82C1.93638 16.8332 3.86662 17.5 6.125 17.5C8.38338 17.5 10.3136 16.8332 11.375 15.82V17.5C11.375 18.9228 8.9705 20.125 6.125 20.125ZM14.875 16.625C13.9501 16.625 13.0497 16.4946 12.25 16.2557V13.664C13.0655 13.881 13.9589 13.9991 14.875 13.9991C17.1334 13.9991 19.0636 13.3324 20.125 12.3191V13.9991C20.125 15.4219 17.7205 16.625 14.875 16.625ZM14.875 13.125C13.9466 13.125 13.0497 12.9929 12.25 12.754V10.5C12.25 10.3836 12.2395 10.269 12.2202 10.1561C13.041 10.3784 13.9379 10.5 14.875 10.5C17.1334 10.5 19.0636 9.83325 20.125 8.82V10.5C20.125 11.9228 17.7205 13.125 14.875 13.125ZM14.875 9.625C13.7296 9.625 12.6542 9.4325 11.7372 9.079C11.284 8.48138 10.5507 7.97562 9.625 7.6125V5.32087C10.6864 6.33412 12.6166 7.00088 14.875 7.00088C17.1334 7.00088 19.0636 6.33412 20.125 5.32087V7.00088C20.125 8.42363 17.7205 9.62588 14.875 9.62588V9.625Z" fill="black"/>
</svg>
