<svg width="22" height="24" viewBox="0 0 22 24" fill="none" xmlns="http://www.w3.org/2000/svg">
<path d="M10.9582 24.008L10.2611 23.4105C9.30013 22.6058 0.90918 15.3591 0.90918 10.0583C0.90918 4.50839 5.40829 0.00927734 10.9582 0.00927734C16.5081 0.00927734 21.0072 4.50839 21.0072 10.0583C21.0072 15.3592 12.6163 22.6059 11.6593 23.4145L10.9582 24.008ZM10.9582 2.18217C6.6104 2.18709 3.08704 5.71045 3.08212 10.0582C3.08212 13.3883 8.24455 18.7081 10.9582 21.1429C13.6719 18.7071 18.8343 13.3843 18.8343 10.0582C18.8294 5.71045 15.306 2.18714 10.9582 2.18217Z" fill="black"/>
<path d="M10.958 14.0414C8.75802 14.0414 6.97461 12.258 6.97461 10.0581C6.97461 7.85811 8.75802 6.07471 10.958 6.07471C13.1579 6.07471 14.9413 7.85811 14.9413 10.0581C14.9413 12.258 13.1579 14.0414 10.958 14.0414ZM10.958 8.06633C9.85798 8.06633 8.96628 8.95804 8.96628 10.058C8.96628 11.158 9.85798 12.0497 10.958 12.0497C12.0579 12.0497 12.9496 11.158 12.9496 10.058C12.9496 8.95804 12.058 8.06633 10.958 8.06633Z" fill="black"/>
</svg>
