<svg width="20" height="19" viewBox="0 0 20 19" fill="none" xmlns="http://www.w3.org/2000/svg">
<path d="M10 19C4.48583 19 0 14.7385 0 9.5C0 4.26154 4.48583 0 10 0C15.5142 0 20 4.26154 20 9.5C20 14.7385 15.5142 19 10 19ZM10 1.58333C5.405 1.58333 1.66667 5.13475 1.66667 9.5C1.66667 13.8653 5.405 17.4167 10 17.4167C14.595 17.4167 18.3333 13.8653 18.3333 9.5C18.3333 5.13475 14.595 1.58333 10 1.58333ZM12.0833 12.9279C12.4825 12.7094 12.6192 12.2249 12.3883 11.8465L10.8333 9.28783V4.75C10.8333 4.313 10.4608 3.95833 10 3.95833C9.53917 3.95833 9.16667 4.313 9.16667 4.75V9.5C9.16667 9.63933 9.205 9.7755 9.27833 9.89583L10.945 12.6382C11.1 12.8923 11.3792 13.034 11.6675 13.034C11.8092 13.034 11.9525 13 12.0833 12.9279Z" fill="black"/>
</svg>
